<svg xmlns="http://www.w3.org/2000/svg" width="152.0581" height="44.146" viewBox="0 0 152.0581 44.146"><g id="Layer_2" data-name="Layer 2"><g id="Layer_1-2" data-name="Layer 1"><path d="M36.1826,49.3979H23.5449L13.5615,36.76V49.3979H3.1162V6.9248H13.5615V32.3164l9.81-12.1763h12.35L24.18,34.1631Z" transform="translate(-3.1162 -5.7134)"/><path d="M68.2681,20.0825V49.3979H57.9961V45.416a8.6284,8.6284,0,0,1-3.6934,3.2608,11.9486,11.9486,0,0,1-5.309,1.1826,12.0584,12.0584,0,0,1-11.2818-7.1265,18.1671,18.1671,0,0,1-1.6445-7.935,18.6,18.6,0,0,1,1.6733-8.0791,13.2511,13.2511,0,0,1,4.6167-5.4825,11.7,11.7,0,0,1,6.6363-1.9619,11.313,11.313,0,0,1,5.28,1.2407,9.4823,9.4823,0,0,1,3.7222,3.3184v-3.751ZM56.4956,40.1646a8.6945,8.6945,0,0,0,1.5-5.482,8.9322,8.9322,0,0,0-1.5-5.5688,5.6285,5.6285,0,0,0-8.5405.0576,8.9419,8.9419,0,0,0-1.5581,5.6265,8.4556,8.4556,0,0,0,1.5005,5.3955,5.2146,5.2146,0,0,0,4.3281,1.8754A5.1191,5.1191,0,0,0,56.4956,40.1646Z" transform="translate(-3.1162 -5.7134)"/><path d="M74.2114,5.7134H85.1182V15.12H74.2114ZM74.5,49.3979V20.0825H84.9453V49.3979Z" transform="translate(-3.1162 -5.7134)"/><path d="M124.2432,49.3979H111.6055L101.6221,36.76V49.3979H91.1768V6.9248h10.4453V32.3164l9.81-12.1763h12.35L112.24,34.1631Z" transform="translate(-3.1162 -5.7134)"/><path d="M155.1743,20.0825V49.3979H144.96V45.4736a9.3155,9.3155,0,0,1-8.3677,4.3858q-5.5978,0-8.3389-3.1162t-2.7412-9.5215V20.0825h10.4453V37.51q0,4.3278,3.751,4.3281a4.4821,4.4821,0,0,0,3.5493-1.5581,6.11,6.11,0,0,0,1.356-4.1553V20.0825Z" transform="translate(-3.1162 -5.7134)"/></g></g></svg>